<svg xmlns="http://www.w3.org/2000/svg" viewBox="0 0 28.871 22.44"><defs><style>.a{fill:#fff;}</style></defs><path class="a" d="M28.61,11.051,24.419,7.6V.654a.6.6,0,0,0-.6-.6H21.01a.6.6,0,0,0-.6.6V4.293L15.922.6a2.4,2.4,0,0,0-3.058,0L.177,11.051A.6.6,0,0,0,.1,11.9l1.278,1.554a.6.6,0,0,0,.847.08l2.145-1.765v9.519a1.2,1.2,0,0,0,1.2,1.2h5.815a.6.6,0,0,0,.6-.6V16.274a.6.6,0,0,1,.6-.6H16.2a.6.6,0,0,1,.6.6v5.614a.6.6,0,0,0,.6.6h5.815a1.2,1.2,0,0,0,1.2-1.2V11.762l2.15,1.77a.6.6,0,0,0,.847-.08L28.695,11.9A.6.6,0,0,0,28.61,11.051Z" transform="translate(0.041 -0.05)"/></svg>