<svg xmlns="http://www.w3.org/2000/svg" viewBox="0 0 25.626 19.22"><defs><style>.a{fill:#fff;}</style></defs><path class="a" d="M25.141,70.347a.3.3,0,0,1,.486.235V80.817a2.4,2.4,0,0,1-2.4,2.4H2.4a2.4,2.4,0,0,1-2.4-2.4V70.587a.3.3,0,0,1,.486-.235c1.121.871,2.608,1.977,7.713,5.686,1.056.771,2.838,2.392,4.615,2.382,1.787.015,3.6-1.642,4.62-2.382C22.538,72.329,24.02,71.217,25.141,70.347ZM12.813,76.813c1.161.02,2.833-1.462,3.674-2.072,6.642-4.82,7.147-5.24,8.679-6.442a1.2,1.2,0,0,0,.46-.946V66.4a2.4,2.4,0,0,0-2.4-2.4H2.4A2.4,2.4,0,0,0,0,66.4v.951a1.205,1.205,0,0,0,.46.946c1.532,1.2,2.037,1.622,8.679,6.442C9.98,75.352,11.652,76.833,12.813,76.813Z" transform="translate(0 -64)"/></svg>