<svg xmlns="http://www.w3.org/2000/svg" viewBox="0 0 96 264.299"><defs><style>.a{fill:#1a1311;}.b{fill:#006aa4;}.c{fill:#ffda00;}.d{fill:#008a32;}.e{fill:#d6006c;}</style></defs><g transform="translate(48 132.149)"><g transform="translate(-48 -132.149)"><path class="a" d="M25.809,56.476V11.838H14.477V55.551q0,3.9-4.232,3.9H3.2V70.085h8.186a17,17,0,0,0,10.3-3.01,12.288,12.288,0,0,0,4.121-10.6Z" transform="translate(16.54 61.196)"/><path class="b" d="M11.4.653V6.508A18.864,18.864,0,0,1,25.923.006a18.507,18.507,0,0,1,8.945,2.036,18.587,18.587,0,0,1,6.126,5.231,16.175,16.175,0,0,1,3.2,7.076,86.469,86.469,0,0,1,.814,14.5A84.464,84.464,0,0,1,44.2,43.188a16.557,16.557,0,0,1-3.189,7.076,19.475,19.475,0,0,1-6.132,5.262,18.087,18.087,0,0,1-8.945,2.085A16.7,16.7,0,0,1,18.07,55.76,29.722,29.722,0,0,1,11.4,50.917v81.2H.063V.653ZM22.456,46.272q8.02,0,9.623-5.478a42.183,42.183,0,0,0,1.6-11.931,42.8,42.8,0,0,0-1.6-12.091q-1.592-5.478-9.623-5.478-7.859,0-9.463,5.694a43.929,43.929,0,0,0-1.6,11.863,43.324,43.324,0,0,0,1.6,11.721Q14.6,46.272,22.456,46.272Z" transform="translate(0.326 0.001)"/><path class="c" d="M41.919,132.314V51.119a20.832,20.832,0,0,1-14.528,6.613,18,18,0,0,1-15.077-7.279,16.162,16.162,0,0,1-3.2-7.033A85.466,85.466,0,0,1,8.305,29,85.406,85.406,0,0,1,9.119,14.55a16.557,16.557,0,0,1,3.2-7.076,19.475,19.475,0,0,1,6.12-5.237A18.087,18.087,0,0,1,27.392.152,18.908,18.908,0,0,1,41.919,6.709V.8H53.251V132.314ZM30.858,46.456q7.859,0,9.457-5.663a44.292,44.292,0,0,0,0-23.614q-1.6-5.694-9.457-5.694-8.02,0-9.63,5.5A42.9,42.9,0,0,0,19.631,29a42.608,42.608,0,0,0,1.6,11.98Q22.833,46.456,30.858,46.456Z" transform="translate(42.749 0.755)"/><rect class="a" width="44.798" height="11.332" transform="translate(0.537 23.103)"/><rect class="d" width="44.798" height="11.332" transform="translate(51.202 23.103)"/><rect class="b" width="56.279" height="11.332" transform="translate(19.753 73.034)"/><rect class="d" width="56.279" height="11.332" transform="translate(19.753 95.507)"/><rect class="e" width="11.332" height="59.252" transform="translate(53.459 73.034)"/><rect class="e" width="56.279" height="11.332" transform="translate(19.833 190.279)"/><rect class="a" width="78.814" height="11.332" transform="translate(8.433 212.944)"/><rect class="b" width="11.332" height="56.279" transform="translate(47.891 154.95) rotate(-45)"/><path class="c" d="M42.808,89.683A12.183,12.183,0,0,1,34.3,92.767,15.934,15.934,0,0,1,25.215,89.6a12.739,12.739,0,0,1-4.577-11.252v-47.5H8.651V79.51a22.924,22.924,0,0,0,7.859,18.507,26.341,26.341,0,0,0,17.4,6.644,24.676,24.676,0,0,0,12.035-2.844,25.91,25.91,0,0,0,5.194-3.794Z" transform="translate(44.555 159.435)"/><path class="a" d="M40.288,27.413,18.475,49.226l-7.742-7.742,15.984-15.99Z" transform="translate(55.478 131.782)"/><path class="e" d="M38.354,25.474,16.541,47.287,8.756,39.508l15.99-15.99Z" transform="translate(45.259 121.568)"/><path class="d" d="M38.253,52.082,8.082,82.254l-8.02-8.02L29.58,44.716a3.6,3.6,0,0,0-.228-5.749l-9.685-9.691,7.514-7.514L37.667,32.249a17,17,0,0,1,5.194,9.42A12.288,12.288,0,0,1,38.253,52.082Z" transform="translate(0.32 112.492)"/><path class="b" d="M35.24,91.243v-60.4H23.914V90.318q0,3.9-4.232,3.9H1.367v10.629H20.824a17,17,0,0,0,10.3-3.01,12.288,12.288,0,0,0,4.115-10.6Z" transform="translate(7.066 159.435)"/><g transform="translate(0 151.533)"><path class="c" d="M22.276,35.445,0,34.8,10.234,24.563l18.439,4.485Z" transform="translate(0 -24.563)"/></g></g></g></svg>