<svg xmlns="http://www.w3.org/2000/svg" viewBox="0 0 15.53 42.68"><defs><style>.cls-1{isolation:isolate;}.cls-2{fill:#e4007f;}.cls-3,.cls-6{fill:#ffe200;}.cls-10,.cls-4{fill:#094;}.cls-5,.cls-7{fill:#0f7cb2;}.cls-10,.cls-6,.cls-7,.cls-9{mix-blend-mode:multiply;}.cls-8,.cls-9{fill:#231815;}</style></defs><title>アセット 5</title><g class="cls-1"><g id="レイヤー_2" data-name="レイヤー 2"><g id="レイヤー_1-2" data-name="レイヤー 1"><path class="cls-2" d="M13.85,42.68l-1.13-1.56a2,2,0,0,0,.87-1.71,2.61,2.61,0,0,0-.51-1.47,2.09,2.09,0,0,0-1.83-.74h-6l1.9-1.94h4.32a3.72,3.72,0,0,1,3,1.27,4.3,4.3,0,0,1,1.07,2.82,4,4,0,0,1-1.67,3.33Z"/><rect class="cls-3" x="7.11" y="25.17" width="7.51" height="1.84"/><rect class="cls-4" y="26.33" width="5.23" height="1.84"/><rect class="cls-3" y="33.32" width="5.23" height="1.84"/><rect class="cls-2" x="1.69" y="24.41" width="1.84" height="10.75"/><path class="cls-5" d="M7.11,26.08a7.85,7.85,0,0,1,.23-2.19,3.38,3.38,0,0,1,.76-1.3,4.15,4.15,0,0,1,1-.79,3.49,3.49,0,0,1,1.73-.38,3.52,3.52,0,0,1,1.73.38,4.34,4.34,0,0,1,1,.79,3.65,3.65,0,0,1,.76,1.3,7.85,7.85,0,0,1,.23,2.19,8,8,0,0,1-.23,2.22,3.65,3.65,0,0,1-.76,1.3,4.1,4.1,0,0,1-1,.79,3.64,3.64,0,0,1-1.73.37,3.61,3.61,0,0,1-1.73-.37,3.93,3.93,0,0,1-1-.79,3.38,3.38,0,0,1-.76-1.3A8,8,0,0,1,7.11,26.08Zm5.69,0a7.19,7.19,0,0,0-.1-1.4,2.55,2.55,0,0,0-.35-.77,1.7,1.7,0,0,0-1.48-.67,1.66,1.66,0,0,0-1.47.67A2,2,0,0,0,9,24.7,7.24,7.24,0,0,0,9,26.08,7.47,7.47,0,0,0,9,27.49a2,2,0,0,0,.36.77,1.66,1.66,0,0,0,1.47.67,1.7,1.7,0,0,0,1.48-.67,2.49,2.49,0,0,0,.35-.76A7.19,7.19,0,0,0,12.8,26.1Z"/><path class="cls-4" d="M7.78,40.37V37.2H9.55V39Zm2.78,0V37.2h1.79V39Z"/><rect class="cls-6" x="3.22" y="8.38" width="9.12" height="1.84"/><rect class="cls-7" x="1.39" y="12.05" width="12.78" height="1.84"/><rect class="cls-8" x="6.31" y="30.78" width="9.12" height="1.84"/><polygon class="cls-3" points="5.23 37.2 11.64 30.78 14.24 30.78 6.53 38.5 5.23 37.2"/><path class="cls-2" d="M1.17,18.29l7.44-6.24h3L4,18.06v0l8.07-.15,1.87,1.82-12.26,0Z"/><rect class="cls-9" x="10.48" y="15.23" width="1.84" height="6.61" transform="translate(-9.77 13.49) rotate(-45)"/><path class="cls-10" d="M9.3.76,15.53,7l-1.3,1.3L8.1,2.16a.59.59,0,0,0-.93,0L1.24,8.13,0,6.91,6.08.85A2.72,2.72,0,0,1,7.61,0,2,2,0,0,1,9.3.76Z"/></g></g></g></svg>