<svg xmlns="http://www.w3.org/2000/svg" viewBox="0 0 96 265.44"><defs><style>.a{fill:#006aa4;}.b{fill:#ffda00;}.c{fill:#d6006c;}.d{fill:#1a1311;}.e{fill:#008a32;}</style></defs><g transform="translate(48 132.72)"><g transform="translate(-48 -132.72)"><rect class="a" width="56.192" height="11.315" transform="translate(19.944 184.479)"/><rect class="b" width="78.692" height="11.315" transform="translate(8.691 207.103)"/><rect class="c" width="56.192" height="11.315" transform="translate(19.969 42.376)"/><path class="d" d="M3.921,51.911,41.666,14.167l16.027-.025-45.77,45.77Z" transform="translate(20.23 72.964)"/><rect class="b" width="95.52" height="11.315" transform="translate(0.277 87.106)"/><path class="e" d="M88.695,11.977H7.311v10.5H0V1.962H96V22.479H88.695Z" transform="translate(0 10.123)"/><path class="a" d="M31.845,50.359a47.852,47.852,0,0,1-13.5-1.4A21.435,21.435,0,0,1,10.343,44.3a26.208,26.208,0,0,1-4.866-6.412A21.5,21.5,0,0,1,3.149,27.193,21.392,21.392,0,0,1,5.477,16.581a26.079,26.079,0,0,1,4.866-6.443A21.435,21.435,0,0,1,18.35,5.482a47.852,47.852,0,0,1,13.477-1.41A48.659,48.659,0,0,1,45.47,5.482a21.435,21.435,0,0,1,8.007,4.656,24.428,24.428,0,0,1,4.909,6.443,21.817,21.817,0,0,1,2.273,10.613,21.927,21.927,0,0,1-2.273,10.693A24.539,24.539,0,0,1,53.514,44.3a21.435,21.435,0,0,1-8.007,4.656,48.659,48.659,0,0,1-13.661,1.4Zm.1-35.022a40.973,40.973,0,0,0-8.623.616A15.343,15.343,0,0,0,18.565,18.1a10.471,10.471,0,0,0-4.114,9.1,10.311,10.311,0,0,0,4.114,9.1,13.119,13.119,0,0,0,4.761,2.187,42.925,42.925,0,0,0,8.5.573,44.574,44.574,0,0,0,8.7-.579,12.608,12.608,0,0,0,4.737-2.187,10.311,10.311,0,0,0,4.114-9.1A10.471,10.471,0,0,0,45.266,18.1a14.708,14.708,0,0,0-4.712-2.143,40.971,40.971,0,0,0-8.6-.616Z" transform="translate(16.143 20.819)"/><path class="d" d="M6.9,22.34V8.173L17.844,0V22.34Z" transform="translate(35.625)"/><path class="c" d="M1.191,72.071,47.048,33.624H65.3L18.573,70.63l.074.2,49.682-.955L79.846,81.131l-75.52-.3Z" transform="translate(6.145 173.479)"/><rect class="e" width="11.315" height="40.689" transform="translate(51.973 236.668) rotate(-45)"/><path class="e" d="M3.263,47.316V11.524H14.571V46.392q0,3.9,4.225,3.9H69.544V60.9H17.657A16.975,16.975,0,0,1,7.371,57.9,12.269,12.269,0,0,1,3.263,47.316Z" transform="translate(16.447 59.457)"/><path class="c" d="M57.161,26.184l38.41,38.41L87.564,72.6,49.807,34.844a3.6,3.6,0,0,0-5.741.228L7.553,71.572.045,64.082l37.3-37.32a16.975,16.975,0,0,1,9.4-5.149,12.269,12.269,0,0,1,10.422,4.57Z" transform="translate(0.232 111.361)"/></g></g></svg>