<svg xmlns="http://www.w3.org/2000/svg" viewBox="0 0 117.785 264.3">
  <defs>
    <style>
      .cls-1 {
        fill: #006aa4;
      }

      .cls-2 {
        fill: #d6006c;
      }

      .cls-3 {
        fill: #1a1311;
      }

      .cls-4 {
        fill: #ffda00;
      }

      .cls-5 {
        fill: #008a32;
      }
    </style>
  </defs>
  <g id="about-logo" transform="translate(58.892 132.15)">
    <g id="グループ化_47" data-name="グループ化 47" transform="translate(-58.892 -132.15)">
      <g id="レイヤー_1" data-name="レイヤー 1">
        <path id="パス_262" data-name="パス 262" class="cls-1" d="M60.657,70H25.816A21.092,21.092,0,0,1,8.978,63.18a23.429,23.429,0,0,1,0-31.185A21.055,21.055,0,0,1,25.8,25.139H60.645a20.962,20.962,0,0,1,16.8,6.856,23.533,23.533,0,0,1,0,31.185A21.012,21.012,0,0,1,60.657,70Zm-.647-33.54H26.464a12.331,12.331,0,0,0-8.884,3.083,11.764,11.764,0,0,0,0,16.123A12.393,12.393,0,0,0,26.464,58.7H60a12.374,12.374,0,0,0,8.915-3.033,11.838,11.838,0,0,0,0-16.123,12.331,12.331,0,0,0-8.909-3.083Z" transform="translate(15.683 129.657)"/>
        <rect id="長方形_162" data-name="長方形 162" class="cls-2" width="80.305" height="11.326" transform="translate(18.743 132.144)"/>
        <rect id="長方形_163" data-name="長方形 163" class="cls-3" width="11.326" height="67.518" transform="translate(38.38 132.144)"/>
        <rect id="長方形_164" data-name="長方形 164" class="cls-4" width="11.326" height="67.518" transform="translate(66.315 132.144)"/>
        <path id="パス_263" data-name="パス 263" class="cls-1" d="M5.674,73.243,43.456,35.462,59.5,35.437,13.683,81.252Z" transform="translate(29.309 183.048)"/>
        <rect id="長方形_165" data-name="長方形 165" class="cls-5" width="95.614" height="11.326" transform="translate(11.085 218.485)"/>
        <path id="パス_264" data-name="パス 264" class="cls-2" d="M5.014,68.646V32.819H16.34v34.9q0,3.9,4.229,3.9h50.8V82.247H19.429a16.992,16.992,0,0,1-10.3-3.009A12.282,12.282,0,0,1,5.014,68.646Z" transform="translate(25.517 169.525)"/>
        <path id="パス_265" data-name="パス 265" class="cls-3" d="M19.177,16.941,38.82,36.59l-8,8.009L15.287,29.068Z" transform="translate(78.964 87.508)"/>
        <rect id="長方形_166" data-name="長方形 166" class="cls-3" width="38.448" height="11.326" transform="translate(0 26.234)"/>
        <rect id="長方形_167" data-name="長方形 167" class="cls-1" width="11.326" height="131.903" transform="translate(13.564 0.203)"/>
        <path id="パス_266" data-name="パス 266" class="cls-2" d="M17.562,3.269V9.12a18.854,18.854,0,0,1,14.52-6.5A17.991,17.991,0,0,1,47.144,9.879a16.166,16.166,0,0,1,3.2,7.072,86.421,86.421,0,0,1,.814,14.495,84.418,84.418,0,0,1-.814,14.335,16.548,16.548,0,0,1-3.2,7.072,19.464,19.464,0,0,1-6.122,5.228,18.077,18.077,0,0,1-8.94,2.084,16.69,16.69,0,0,1-7.855-1.85,29.705,29.705,0,0,1-6.665-4.821v54.872L6.236,119.6V3.269ZM28.617,48.813q8.015,0,9.618-5.475a42.16,42.16,0,0,0,1.6-11.924,42.776,42.776,0,0,0-1.6-12.084q-1.591-5.475-9.618-5.475-7.855,0-9.458,5.691a43.9,43.9,0,0,0-1.6,11.868,43.3,43.3,0,0,0,1.6,11.714Q20.768,48.813,28.617,48.813Z" transform="translate(32.212 13.458)"/>
        <rect id="長方形_168" data-name="長方形 168" class="cls-5" width="44.773" height="11.326" transform="translate(38.596 39.163)"/>
        <rect id="長方形_169" data-name="長方形 169" class="cls-2" width="41.937" height="11.326" transform="translate(75.847 74.004)"/>
        <rect id="長方形_170" data-name="長方形 170" class="cls-1" width="41.937" height="11.326" transform="translate(75.847 0.203)"/>
        <rect id="長方形_171" data-name="長方形 171" class="cls-3" width="11.326" height="33.978" transform="translate(51.825 87.675) rotate(-45)"/>
        <rect id="長方形_172" data-name="長方形 172" class="cls-4" width="52.862" height="11.326" transform="translate(30.464 125.057) rotate(-45)"/>
        <rect id="長方形_173" data-name="長方形 173" class="cls-4" width="11.326" height="74.004" transform="translate(83.369)"/>
        <path id="パス_267" data-name="パス 267" class="cls-5" d="M19.308,116.973a12.177,12.177,0,0,0,8.5,3.083,15.925,15.925,0,0,0,9.082-3.169,12.732,12.732,0,0,0,4.575-11.246V.033H53.44V106.794a22.911,22.911,0,0,1-7.855,18.5,26.326,26.326,0,0,1-17.393,6.64,24.662,24.662,0,0,1-12.029-2.842,25.9,25.9,0,0,1-5.191-3.792Z" transform="translate(56.675 0.17)"/>
        <path id="パス_268" data-name="パス 268" class="cls-4" d="M8.894,40.039,19.086,16.062,29.3,40.039h8.9L23.093,6.092H15.127L.022,40.039Z" transform="translate(0.114 31.468)"/>
      </g>
    </g>
  </g>
</svg>
