<svg xmlns="http://www.w3.org/2000/svg" viewBox="0 0 15.53 42.43"><defs><style>.cls-1{fill:#0f7cb2;}.cls-2{fill:#ffe200;}.cls-3{fill:#231815;}.cls-4{fill:#094;}.cls-5{fill:#e4007f;}</style></defs><title>アセット 2</title><g id="レイヤー_2" data-name="レイヤー 2"><g id="レイヤー_1-2" data-name="レイヤー 1"><rect class="cls-1" x="2.73" y="36.93" width="6.22" height="1.84" transform="translate(-25.05 15.21) rotate(-45)"/><path class="cls-2" d="M9.74,42.43,8.6,40.86a2,2,0,0,0,.87-1.7A2.62,2.62,0,0,0,9,37.68a2.07,2.07,0,0,0-1.82-.74H3V35H7.33a3.72,3.72,0,0,1,3,1.27,4.27,4.27,0,0,1,1.08,2.83,4,4,0,0,1-1.67,3.33Z"/><polygon class="cls-2" points="13.21 23.29 12.27 24.92 10.24 24.89 11.67 22.41 13.21 23.29"/><polygon class="cls-3" points="2.9 23.29 3.84 24.92 5.87 24.89 4.44 22.41 2.9 23.29"/><path class="cls-3" d="M14.17,33.78a2,2,0,0,1-1.38.5,2.57,2.57,0,0,1-1.47-.51,2.07,2.07,0,0,1-.74-1.83v-7H8.63v7.21a3.73,3.73,0,0,0,1.28,3,4.3,4.3,0,0,0,2.82,1.07,4,4,0,0,0,1.95-.46,4,4,0,0,0,.84-.61Z"/><rect class="cls-4" x="3.22" y="9.08" width="9.12" height="1.84"/><rect class="cls-5" x="1.38" y="12.76" width="12.78" height="1.84"/><rect class="cls-1" x="2.06" y="24.92" width="11.23" height="1.84"/><rect class="cls-5" y="29.63" width="15.34" height="1.84"/><rect class="cls-1" x="10.73" y="1.37" width="1.84" height="9.12" transform="translate(-0.78 9.97) rotate(-45)"/><rect class="cls-4" x="-3.22" y="27.75" width="16.36" height="1.84" transform="translate(-22.35 18.63) rotate(-60)"/><path class="cls-1" d="M14.17,18.62a2,2,0,0,1-1.38.49,2.57,2.57,0,0,1-1.47-.51,2,2,0,0,1-.74-1.82V9.08H8.63V17a3.72,3.72,0,0,0,1.28,3,4.26,4.26,0,0,0,2.82,1.08,4.07,4.07,0,0,0,1.95-.46,4.46,4.46,0,0,0,.84-.62Z"/><path class="cls-2" d="M15.53,4,12,7.58,10.74,6.32l2.59-2.59Zm-2-2L10,5.61,8.77,4.35l2.59-2.59Z"/><path class="cls-5" d="M6.26,4.91,1.37,9.81.07,8.51,4.86,3.72a.58.58,0,0,0,0-.93L3.25,1.22,4.47,0l1.7,1.7A2.72,2.72,0,0,1,7,3.23,2,2,0,0,1,6.26,4.91Z"/><path class="cls-2" d="M6.87,18.87V9.08H5v9.64c0,.42-.23.64-.69.64h-3v1.72H4.53a2.73,2.73,0,0,0,1.67-.49A2,2,0,0,0,6.87,18.87Z"/><path class="cls-3" d="M3.62,4.57,0,4.46,1.67,2.8l3,.73Z"/></g></g></svg>