<svg xmlns="http://www.w3.org/2000/svg" viewBox="0 0 96 260.506"><defs><style>.a{fill:#d6006c;}.b{fill:#008a32;}.c{fill:#ffda00;}.d{fill:#006aa4;}.e{fill:#1a1311;}</style></defs><g transform="translate(48 130.253)"><g transform="translate(-48 -130.253)"><g transform="translate(0)"><path class="a" d="M28.829,106.788v-79.4H17.615v78.49q0,3.866-4.19,3.866H9.614v10.524h4.941a16.833,16.833,0,0,0,10.2-2.981A12.167,12.167,0,0,0,28.829,106.788Z" transform="translate(49.111 139.89)"/><rect class="b" width="47.335" height="11.22" transform="translate(48.665 167.254)"/><rect class="c" width="11.22" height="64.125" transform="translate(37.928 53.962)"/><rect class="d" width="55.721" height="11.22" transform="translate(0.002 39.401) rotate(-45)"/><rect class="a" width="55.721" height="11.22" transform="translate(32.593 39.401) rotate(-45)"/><path class="b" d="M2.829,119.816V13.139L14.049,1.785V119.816Z" transform="translate(14.455 9.118)"/><rect class="e" width="55.721" height="11.22" transform="translate(0.007 170.008) rotate(-45)"/><rect class="c" width="55.721" height="11.22" transform="translate(0 199.183) rotate(-45)"/><path class="d" d="M2.829,117.762V39.29l11.22-11.348v89.844Z" transform="translate(14.455 142.72)"/><path class="d" d="M9.589,12.235H38.912l8.1,10.841H9.589Z" transform="translate(48.983 62.493)"/><path class="b" d="M9.589,15.785H38.912l8.1,10.841H9.589Z" transform="translate(48.983 80.626)"/><path class="a" d="M9.589,19.334H38.912l8.1,10.847H9.589Z" transform="translate(48.983 98.753)"/><path class="d" d="M7.967,23.447H47.2l8.1,10.847H7.967Z" transform="translate(40.698 119.761)"/><path class="e" d="M47.017,5.019l-18.525,12.4L9.589,4.793h0V17.955L18.561,23.7,9.589,29.45V42.221h.574l18.329-12.24,18.286,12.24h.238v-12.8l-9.3-5.723,9.3-5.729Z" transform="translate(48.983 24.482)"/><path class="c" d="M59.965,2.956H18.329L7.054,14.176H59.965Z" transform="translate(36.035 15.099)"/></g></g></g></svg>