<svg xmlns="http://www.w3.org/2000/svg" viewBox="0 0 15.54 43.11"><defs><style>.cls-1{fill:#094;}.cls-2{fill:#e4007f;}.cls-3{fill:#ffe200;}.cls-4{fill:#231815;}.cls-5{fill:#0f7cb2;}</style></defs><title>アセット 3</title><g id="レイヤー_2" data-name="レイヤー 2"><g id="レイヤー_1-2" data-name="レイヤー 1"><path class="cls-1" d="M8.17,35.51V29.86a3.41,3.41,0,0,1,1.11-2.73,3.78,3.78,0,0,1,5.06,0,3.41,3.41,0,0,1,1.11,2.73v5.65a3.39,3.39,0,0,1-1.11,2.72,3.81,3.81,0,0,1-5.06,0A3.39,3.39,0,0,1,8.17,35.51Zm5.44-.11V30a2,2,0,0,0-.49-1.44A1.73,1.73,0,0,0,11.81,28a1.72,1.72,0,0,0-1.31.52A2,2,0,0,0,10,30V35.4a2,2,0,0,0,.49,1.45,1.75,1.75,0,0,0,1.31.51,1.76,1.76,0,0,0,1.31-.51A2,2,0,0,0,13.61,35.4Z"/><rect class="cls-2" x="3.47" y="11.64" width="9.3" height="1.84"/><rect class="cls-3" x="7.25" y="10.32" width="1.84" height="11.14"/><path class="cls-1" d="M.8,6.45,7.26,0,8.55,1.3,7.86,2l0,0a2.86,2.86,0,0,1,2.44.92,3.17,3.17,0,0,1,.88,2,2.85,2.85,0,0,1-1,2.36L6,11.6l-1.3-1.3L8.5,6.46a1.94,1.94,0,0,0,.65-1.38,1.69,1.69,0,0,0-.53-1.27,1.81,1.81,0,0,0-1.29-.56,2,2,0,0,0-1.39.66L2.1,7.75Z"/><rect class="cls-4" x="6.58" y="2.06" width="1.84" height="10.5" transform="translate(-2.97 7.44) rotate(-45)"/><rect class="cls-1" y="26.43" width="6.08" height="1.84"/><rect class="cls-5" x="10.94" y="21.46" width="1.84" height="4.97"/><rect class="cls-3" y="35.11" width="6.08" height="1.84"/><rect class="cls-2" x="2.12" y="28.12" width="1.84" height="8.83"/><polygon class="cls-5" points="9.03 43.11 9.03 39.19 10.81 39.19 10.81 41.78 9.03 43.11"/><polygon class="cls-4" points="14.59 43.11 14.59 39.19 12.81 39.19 12.81 41.78 14.59 43.11"/><rect class="cls-3" x="8.17" y="29.99" width="7.37" height="1.84"/><rect class="cls-2" x="8.17" y="21.46" width="7.37" height="1.84"/><rect class="cls-4" x="8.17" y="33.49" width="7.37" height="1.84"/><polygon class="cls-5" points="6.38 21.46 8.15 16.09 8.18 16.09 9.97 21.46 11.88 21.46 8.97 13.46 7.36 13.46 4.45 21.46 6.38 21.46"/></g></g></svg>